/* XPM */
static char *dummy[]={
"32 32 228 2",
".e c #000000",
".x c #010000",
".o c #010100",
".p c #020100",
".h c #030200",
"#w c #040300",
"a0 c #050400",
"#a c #060400",
"b# c #060500",
"bo c #070400",
".g c #080601",
"as c #090700",
"#0 c #0a0701",
"#B c #0b0900",
"#p c #0c0800",
"aK c #0c0900",
".l c #0c0902",
".Y c #0d0901",
"bp c #0e0a00",
"aq c #0f0a00",
"aM c #110c00",
".k c #110f03",
".s c #130f04",
"aX c #140f00",
"aC c #150f00",
"#q c #1a1403",
".R c #1b1300",
"aT c #211801",
"ap c #221900",
"aV c #261c01",
"bd c #271d02",
"aW c #2b2001",
"a1 c #302401",
".r c #322502",
"bw c #3d2d01",
"aJ c #402f01",
".V c #40340c",
"a5 c #412f01",
".U c #41350c",
"b. c #463302",
"aO c #4c3801",
"#X c #4e3a05",
"#H c #513d07",
".W c #52420f",
".j c #524512",
"aQ c #543e02",
".q c #56440e",
"ba c #594305",
"aD c #624803",
".H c #645113",
"#x c #684f07",
"aS c #6a4f02",
"af c #6c5309",
"al c #6d5205",
"at c #6e5407",
"#9 c #6e550a",
"bv c #705301",
"#1 c #70560c",
".A c #705d17",
"bc c #715501",
"#T c #71580d",
"#N c #72580e",
"aF c #735503",
"a6 c #7b5a03",
"aR c #7c5c03",
"bs c #7d5c04",
"a3 c #836103",
"#8 c #846307",
".F c #8a741c",
"aP c #8c6803",
".M c #8c711c",
"aU c #8d6a04",
"by c #906c04",
"aN c #926c04",
"bf c #936e04",
"aI c #977003",
"#m c #977b1a",
"#o c #987a1a",
"aZ c #997104",
"aB c #9a7205",
"#l c #9a7e1b",
"#6 c #a07a0c",
"ak c #a37c07",
".t c #a3821f",
".y c #a79122",
"br c #b78804",
".G c #b8a12a",
"a8 c #bd9109",
"bq c #bf8d01",
"aj c #c5930a",
"bC c #c99c19",
"bD c #cb9602",
"bk c #cb9604",
"bG c #cc9602",
"bH c #cc9702",
"aY c #cc9f1c",
"bj c #cd9804",
"be c #cd9805",
"bF c #ce9802",
"bA c #ce9803",
"a4 c #ce9905",
"aH c #ce9906",
"#7 c #ce9c11",
"bE c #cf9902",
"a9 c #cf9904",
"bh c #cf9a05",
"aG c #cfa21d",
"a7 c #d09a04",
"az c #d0a21d",
"aL c #d19c06",
"aA c #d19c08",
"ax c #d1a41d",
"bB c #d29c03",
"bz c #d29c04",
"aE c #d29c06",
"av c #d2a520",
"bu c #d39c04",
"bi c #d39d03",
"ay c #d39e0a",
"bb c #d49d04",
"bg c #d49e05",
"bl c #d59e04",
"aw c #d5a00c",
"#5 c #d5a20b",
"ah c #d5a920",
"a2 c #d69f05",
"an c #d6a10d",
"a# c #d8ac25",
"bm c #d9a205",
"ai c #d9a410",
"au c #daa30d",
"ae c #daa511",
"ab c #daa512",
"#3 c #daad24",
".Z c #dabb31",
"aa c #dba612",
"am c #dca610",
"#4 c #dda814",
"#V c #ddb028",
"ag c #dea812",
".I c #dec435",
"#W c #dfaa16",
".f c #dfc335",
"bt c #e0a604",
"a. c #e0aa14",
"#P c #e0b329",
"#J c #e0b32a",
"bn c #e1a704",
"ao c #e1a90d",
"ac c #e1ab13",
"#Z c #e1ab16",
"#Q c #e1ac18",
"#D c #e1b72f",
"#S c #e2ac18",
".B c #e2ce38",
"#2 c #e3ad16",
"#R c #e3ae19",
"#r c #e3b522",
"bx c #e4a905",
"ar c #e4ab0e",
"#M c #e4af1a",
"#K c #e4af1b",
"#y c #e4b82f",
"ad c #e5ad12",
"#U c #e5af19",
"#L c #e5af1b",
"#E c #e6b11d",
"#s c #e6bb32",
"#Y c #e7b219",
"#F c #e7b21d",
"#O c #e8b21b",
"#I c #e8b21d",
"#C c #e8b31f",
"#i c #e8bc34",
"#z c #e9b420",
"#G c #eab41e",
"#A c #eab520",
"#v c #ebb621",
"#t c #ebb622",
"#u c #ecb621",
"#n c #ecb724",
"#f c #ecbf36",
"#j c #edb824",
"#c c #edc037",
"#k c #eeb925",
"#g c #f0bb27",
"#. c #f0c339",
"#h c #f1bb27",
".4 c #f1c63c",
"#d c #f2bd29",
"#e c #f3bd29",
".2 c #f3c83f",
"## c #f4bf2b",
"Qt c #f4d759",
"#b c #f5c02b",
".8 c #f5c12c",
".N c #f5d93a",
".5 c #f6c12d",
".0 c #f6ca40",
".S c #f6cb41",
".z c #f6d53b",
".3 c #f8c32f",
".7 c #f8c52e",
".6 c #f8c62e",
".9 c #f8c72e",
".K c #f8cd44",
".D c #f8ce45",
".v c #f8cf46",
".m c #f8d147",
".b c #f8d34a",
".# c #f8d44c",
".X c #f9d236",
".1 c #fbc632",
".T c #fcc733",
".i c #fcd93c",
".C c #fcdd3d",
".Q c #fdc935",
".J c #fdd93a",
".L c #fec935",
".u c #fed13b",
".E c #ffcb37",
".P c #ffcd37",
".w c #ffcd39",
".O c #ffce37",
".n c #ffce3a",
".c c #ffcf3b",
".d c #ffcf3c",
".a c #ffd13d",
"Qt.#.#.#.#.#.#.#.#.#.#.#.#.#.#.#.#.#.#.#.#.#.#.#.#.#.#.#.#.#.#.#",
".#.a.a.a.a.a.a.a.a.a.a.a.a.a.a.a.a.a.a.a.a.a.a.a.a.a.a.a.a.a.a.a",
".b.c.d.e.c.f.g.h.i.j.k.l.c.c.c.c.c.c.c.c.c.c.c.c.c.c.c.c.c.c.c.c",
".m.n.o.p.n.q.n.n.r.s.n.t.u.n.n.n.n.n.n.n.n.n.n.n.n.n.n.n.n.n.n.n",
".v.w.w.x.w.w.w.y.z.A.w.B.C.w.w.w.w.w.w.w.w.w.w.w.w.w.w.w.w.w.w.w",
".D.E.E.x.E.E.F.G.E.H.E.I.J.E.E.E.E.E.E.E.E.E.E.E.E.E.E.E.E.E.E.E",
".K.L.L.x.L.M.N.O.P.h.Q.R.L.L.L.L.L.L.L.L.L.L.L.L.L.L.L.L.L.L.L.L",
".S.T.T.U.T.V.V.V.W.X.Y.Z.T.T.T.T.T.T.T.T.T.T.T.T.T.T.T.T.T.T.T.T",
".0.1.1.1.1.1.1.1.1.1.1.1.1.1.1.1.1.1.1.1.1.1.1.1.1.1.1.1.1.1.1.1",
".2.3.3.3.3.3.3.3.3.3.3.3.3.3.3.3.3.3.3.3.3.3.3.3.3.3.3.3.3.3.3.3",
".4.5.5.5.5.5.6.7.8.5.5.5.5.5.5.6.9.5.5.5.5.5.5.5.5.5.5.5.5.5.5.5",
"#.###########a.e#b############.e.e##############################",
"#c#d#d#d#d#d#a.e#e#d#d#d#d#d#d.e.e#d#d#d#d#d#d#d#d#d#d#d#d#d#d#d",
"#f#g#g#g#g#g#a.e#h#g#g#g#g#g#g.e.e#g#g#g#g#g#g#g#g#g#g#g#g#g#g#g",
"#i#j#j#j#j#j#a.e#k#j#j#j#j#j#j.e.e#j#l#m#n#o#p#q#r#n#j#j#j#j#j#j",
"#s#t#t#t#t#t#a.e#u#t#t#t#t#t#v.e.e#t#w.e.e.e.x.e.e#x#t#t#t#t#t#t",
"#y#z#z#z#z#z#a.e#A#z#z#z#z#z#z.e.e#z#w.e#B#z#z#C.e.e#z#z#z#z#z#z",
"#D#E#E#E#E#E#a.e#F#E#E#E#E#E#E.e.e#E#w.e#G#E#E#E#H.e#I#E#E#E#E#E",
"#J#K#K#K#K#K#a.e#L#K#K#K#K#K#M.e.e#K#w.e#K#K#K#K#N.e#O#K#K#K#K#K",
"#P#Q#Q#Q#Q#Q#p.e#R#Q#Q#Q#Q#Q#S.e.e#Q#w.e#Q#Q#Q#Q#T.e#U#Q#Q#Q#Q#Q",
"#V#W#W#W#W#W#X.e#Y#W#W#W#W#W#Z.e#0#W#w.e#W#W#W#W#1.e#2#W#W#W#W#W",
"#3#4#4#4#4#4#5.e#6#4#4#4#4#4#7.e#8#4#w.e#4#4#4#4#9.ea.#4#4#4#4#4",
"a#aaaaaaaaaaab.e.eacaaaaaaad.e.eaeaa#w.eaaaaaaaaaf.eagaaaaaaaaaa",
"ahaiaiaiaiaiaiaj.e.e.e.e.e.e.eakaiai#w.eaiaiaiaial.eamaiaiaiaiai",
"ahanananananananaoap.e.e.eaqaranananasasananananatasauananananan",
"avawawawawawawawawawawawawawawawawawawawawawawawawawawawawawawaw",
"axayayayayayayayayayayayayayayayayayayayayayayayayayayayayayayay",
"azaAaBaAaCaAaAaAaAaAaDaAaEaAaAaAaAaAaFaAaAaAaAaAaAaAaAaAaAaAaAaA",
"aGaHaIaH#aaJaKaLaMaNaO.h.paPaCaQaR#aaSaTaHaUaVaWaXaEaHaHaHaHaHaH",
"aYaHaZaHa0a1a2a3a4a5a6a7a8a9b.b#babbbcbdbebfbg.ebhbiaHaHaHaHaHaH",
"aYbj.hbkaWa1blbmbnbobpbqbrbsbtb#babubvbwbxbybz.ebAbBbjbjbjbjbjbj",
"bCbDbDbEbDbDbDbDbFbDbDbGbDbGbFbDbDbDbDbDbHbDbDbDbDbDbDbDbDbDbDbD"};
