/* XPM */
static char *dummy[]={
"64 64 702 2",
".s c #000000",
"#e c #010000",
".C c #010100",
".v c #020100",
".K c #020200",
".y c #030200",
"e2 c #040200",
".S c #040300",
"ah c #050300",
".E c #050400",
"#1 c #060400",
"hp c #060500",
"ia c #070400",
"c4 c #070500",
".w c #080601",
"e1 c #090700",
"gt c #0a0700",
"dQ c #0a0701",
"al c #0a0802",
"cu c #0b0900",
"bR c #0c0800",
"cI c #0c0900",
".F c #0c0902",
"gj c #0d0900",
"az c #0d0901",
"io c #0d0a00",
"ak c #0d0b02",
"g8 c #0e0a00",
"fa c #0f0a00",
"gX c #0f0b00",
"gp c #100c00",
"gm c #110c00",
"ew c #110d00",
".D c #110f03",
".z c #120d00",
"cR c #120d01",
".x c #120f03",
"eA c #130e00",
"d1 c #130f01",
".8 c #130f04",
"gF c #140f00",
"#a c #140f01",
"fJ c #150f00",
"g1 c #161000",
"gZ c #181100",
"#u c #181304",
"ht c #191200",
"#h c #191201",
"cU c #1a1200",
"id c #1a1300",
"bS c #1a1403",
"aa c #1b1300",
"gs c #1b1400",
"hz c #1c1501",
"dq c #201701",
"gz c #211801",
".N c #211a06",
"f# c #221900",
"gG c #221901",
"#N c #221a06",
"gQ c #241b00",
"dP c #251c01",
"g4 c #251c02",
"#Y c #251c05",
"gD c #261c01",
"iR c #271d01",
"hv c #271d02",
"iS c #271e01",
"#j c #282108",
"iC c #291e01",
"iu c #291f02",
"bQ c #2a2107",
"en c #2b2001",
"dB c #2b2002",
"a7 c #2c2002",
"hN c #2d2101",
"aZ c #2d2202",
"gE c #2e2201",
"ai c #2e2202",
"hS c #2f2301",
"hc c #302401",
".6 c #322502",
"an c #33290a",
"gM c #352801",
"aA c #362b0a",
"iF c #392b02",
".O c #3c310a",
"il c #3d2d01",
"ab c #3d310c",
"iJ c #3f2f02",
"gi c #402f01",
"dE c #403005",
"#X c #40320a",
"av c #40340c",
"hg c #412f01",
"as c #41350c",
"cJ c #433204",
"iX c #443101",
"iz c #443201",
"ho c #463302",
"h8 c #4a3702",
"go c #4c3801",
"iV c #4d3801",
"dM c #4e3a05",
"iO c #4f3a02",
".5 c #504211",
"fT c #513c02",
"cT c #513d07",
"aw c #52420f",
".B c #524512",
"c2 c #533f07",
"gu c #543e02",
"ay c #544310",
"gl c #553e01",
"if c #553f02",
"iL c #563f01",
"hl c #564002",
"ez c #564006",
".3 c #56440e",
"#k c #584810",
"hr c #594305",
"#U c #594a13",
"f7 c #5a4202",
"ev c #5a4303",
"fG c #5b4302",
"gk c #5b4303",
"iv c #5c4403",
"eH c #5c4504",
"bT c #5d470b",
"b4 c #5d490b",
"f4 c #5e4604",
"gV c #614802",
"iy c #624802",
"fM c #624803",
"#O c #645113",
".7 c #655310",
"ih c #664b01",
"cd c #684f07",
"dt c #684f08",
"gx c #6a4f02",
"e6 c #6b5106",
"eD c #6c5309",
"c3 c #6c530d",
"#i c #6c5414",
"hC c #6d5002",
"eX c #6d5205",
"er c #6d5309",
"fg c #6e5407",
"d5 c #6e550a",
"ik c #705301",
"hO c #705304",
"dU c #70560c",
"#G c #705c17",
"#v c #705d17",
"hX c #715301",
"hu c #715501",
"dI c #71560a",
"dw c #71580d",
"g2 c #725502",
"dm c #72580d",
"dc c #72580e",
".i c #725c19",
"fQ c #735503",
"fP c #745603",
"dh c #75590c",
".0 c #755f17",
".n c #755f19",
".Y c #756219",
"hD c #765702",
"eN c #765906",
"iN c #795a02",
"iI c #7b5a02",
"hi c #7b5a03",
"gw c #7c5c03",
"cO c #7c5e0d",
"cD c #7c5f0e",
"ci c #7c600d",
"bZ c #7c600e",
"c# c #7c600f",
"bI c #7c6110",
"bz c #7c6310",
"ig c #7d5c04",
"h0 c #7d5d03",
"gB c #7e5d04",
"db c #7e6111",
"bp c #7e6513",
"a1 c #7e6612",
"bu c #7f6513",
"bd c #806715",
"a9 c #806816",
"fb c #826107",
"hd c #836103",
".T c #836a1d",
"eb c #846307",
"fe c #856409",
"eW c #866509",
"eC c #876609",
"ee c #87660a",
"dY c #87670b",
"eq c #88680c",
"d4 c #88680e",
"dH c #88690d",
"g6 c #896605",
"dT c #89690d",
"#K c #8a741c",
"am c #8b711e",
"gr c #8c6803",
"dk c #8c6b0c",
"#6 c #8c711c",
"iP c #8d6801",
"gC c #8d6a04",
"hK c #8f6a02",
"iE c #8f6a04",
"cn c #8f7017",
"iK c #906a02",
"ip c #906c04",
"hJ c #906c05",
"hh c #926c02",
"gn c #926c04",
"g7 c #936e04",
"ii c #956e04",
"gg c #977003",
"bM c #977b1a",
"gI c #987103",
"bP c #987a1a",
"fU c #997103",
"hb c #997104",
"f. c #99730a",
"gy c #9a7203",
"fH c #9a7205",
"bL c #9a7e1b",
"hY c #9c7405",
"fR c #9e7503",
"cy c #9e7910",
"hn c #9f7502",
"g3 c #9f7605",
"he c #a07703",
"e. c #a07a0c",
"im c #a17705",
"hR c #a17805",
"eV c #a37c07",
"## c #a3821f",
"iU c #a47904",
"#s c #a79122",
"iQ c #a97d02",
"f3 c #a97d04",
".h c #a99225",
"fL c #ab7f04",
"gP c #ac8003",
"#b c #ac8a22",
"ib c #ad8004",
"#D c #ad9928",
".e c #af9124",
".o c #af9928",
".1 c #af9a28",
"it c #b18204",
"iD c #b18304",
"iB c #b28302",
"gv c #b58605",
"ie c #b78804",
"#L c #b8a12a",
"ij c #b98804",
"hV c #b98904",
"cj c #b98e15",
".j c #b9a52c",
"hq c #ba8903",
"h6 c #ba8a05",
"f6 c #ba8b05",
"hQ c #bb8f08",
"gY c #bc8c05",
"#E c #bca42b",
"gq c #bd8e07",
"hk c #bd9109",
"e3 c #be8f0d",
"ic c #bf8d01",
"gU c #bf8e05",
"gT c #bf9208",
"fn c #c19109",
"#0 c #c19b27",
"gL c #c29208",
".J c #c2ab2e",
"fo c #c4930b",
"iT c #c59202",
"hT c #c59204",
"eU c #c5930a",
"cx c #c5a01b",
"iM c #c69203",
"eI c #c7950a",
"i1 c #c99c19",
"is c #ca9501",
"h5 c #ca9603",
"hZ c #ca9604",
"eM c #ca990b",
"ir c #ca9d19",
"i2 c #cb9602",
"h7 c #cb9604",
"ix c #cb9605",
"fm c #cb990c",
"i6 c #cc9602",
"i3 c #cc9702",
"hE c #cc9703",
"hM c #cc9804",
"g5 c #cc9805",
"ha c #cc9f1c",
".m c #ccb130",
"i7 c #cd9702",
"iZ c #cd9703",
"hL c #cd9803",
"hB c #cd9804",
"hw c #cd9805",
"i5 c #ce9802",
"h3 c #ce9803",
"hH c #ce9804",
"hf c #ce9905",
"gf c #ce9906",
"ea c #ce9c11",
"gH c #cea01c",
"i4 c #cf9902",
"iW c #cf9903",
"hm c #cf9904",
"gA c #cf9a05",
"f2 c #cf9a06",
"ge c #cfa21d",
"i0 c #d09902",
"hP c #d09a03",
"hj c #d09a04",
"f0 c #d09b06",
"fS c #d09b07",
"fy c #d0a21d",
"iH c #d19b02",
"h2 c #d19b03",
"hG c #d19b05",
"g. c #d19b07",
"g# c #d19c06",
"fN c #d19c07",
"fC c #d19c08",
"fE c #d19c09",
"gh c #d1a00a",
"fx c #d1a41d",
".4 c #d1b130",
"#V c #d1b631",
"iw c #d29b02",
"g9 c #d29b05",
"iq c #d29c03",
"h1 c #d29c04",
"g0 c #d29c05",
"fO c #d29c06",
"fz c #d29d09",
"fp c #d29e0c",
"fv c #d2a520",
"h4 c #d39c03",
"hW c #d39c04",
"gN c #d39c05",
"hA c #d39d03",
"gd c #d39d06",
"f8 c #d39d07",
"fB c #d39d08",
"e0 c #d39e0a",
"iA c #d49d02",
"hs c #d49d04",
"h. c #d49d05",
"hx c #d49e05",
"fX c #d49e06",
"fF c #d49f08",
"fw c #d49f0b",
"fi c #d4a71f",
"gR c #d59d05",
"hI c #d59e04",
"h# c #d59e05",
"fV c #d59e06",
"gb c #d59e07",
"fA c #d59f08",
"fj c #d5a00c",
"d9 c #d5a20b",
"eR c #d5a920",
"iG c #d69d03",
"fW c #d69f05",
"fY c #d69f06",
"gc c #d6a006",
"e8 c #d6a10d",
"ff c #d6a10e",
"f1 c #d79f06",
"fZ c #d7a005",
"f5 c #d7a006",
"fD c #d7a108",
"ft c #d7a20c",
"eZ c #d7a20e",
"e4 c #d7a20f",
"eF c #d7aa23",
"#9 c #d7ae2b",
".V c #d7c034",
"iY c #d89f04",
"f9 c #d8a005",
"fI c #d8a006",
"fk c #d8a20c",
"fu c #d8a30d",
"eT c #d8a310",
"eh c #d8ac25",
"i# c #d9a103",
"fK c #d9a109",
"h9 c #d9a205",
"eS c #d9a410",
"af c #d9ae2e",
"gJ c #daa205",
"fq c #daa30c",
"fh c #daa30d",
"eP c #daa510",
"et c #daa511",
"eu c #daa512",
"ex c #daa612",
"b3 c #daac20",
"d7 c #daad24",
"aB c #dabb31",
"#l c #dac233",
"fs c #dba40c",
"fr c #dba40d",
"e7 c #dba50e",
"eL c #dba610",
"el c #dba612",
"#B c #dbb02f",
"#q c #dbb030",
"hU c #dca304",
"ga c #dca406",
"eJ c #dca50e",
"eY c #dca610",
"ei c #dca712",
"e# c #dca713",
"dW c #dcb027",
".t c #dcb131",
"fd c #dda60d",
"eK c #dda70f",
"eQ c #dda711",
"ec c #dda713",
"ef c #dda813",
"d8 c #dda814",
"dK c #ddb028",
"hF c #dea504",
"gW c #dea505",
"gO c #dea606",
"e5 c #dea70e",
"eE c #dea812",
"dX c #dea915",
"dy c #deb128",
"cc c #deb220",
"#P c #dec435",
"gK c #dfa606",
"eO c #dfa810",
"es c #dfa913",
"d2 c #dfa914",
"em c #dfaa11",
"dL c #dfaa16",
".u c #dfc335",
"hy c #e0a604",
"eg c #e0aa14",
"dz c #e0ab17",
"de c #e0b329",
"c6 c #e0b32a",
"i. c #e1a704",
"e9 c #e1a90d",
"fl c #e1a90e",
"eB c #e1aa12",
"ep c #e1ab13",
"d6 c #e1ab15",
"dO c #e1ab16",
"dD c #e1ab17",
"do c #e1ac18",
"at c #e1b22c",
"cW c #e1b52c",
"cK c #e1b72f",
"dA c #e2ac17",
"ds c #e2ac18",
"dR c #e2ad16",
"df c #e2ad19",
"#x c #e2ce38",
"gS c #e3a806",
"eG c #e3ab12",
"ed c #e3ad14",
"dV c #e3ad16",
"dJ c #e3ad17",
"dl c #e3ad18",
"dr c #e3ae19",
"bU c #e3b522",
"cz c #e3b72f",
"in c #e4a905",
"fc c #e4ab0e",
"d3 c #e4ad15",
"dZ c #e4ae13",
"d. c #e4af1a",
"c7 c #e4af1b",
"cp c #e4b82f",
"au c #e4c332",
"ey c #e5ad12",
"d0 c #e5ae14",
"dC c #e5af18",
"dx c #e5af19",
"c9 c #e5af1b",
"cX c #e5b01c",
".r c #e5cc37",
"ej c #e6af13",
"dS c #e6af16",
"dG c #e6af17",
"dp c #e6af18",
"ek c #e6b014",
"dn c #e6b019",
"cZ c #e6b11c",
"cL c #e6b11d",
"b6 c #e6bb32",
"dF c #e7b017",
"dN c #e7b219",
"cN c #e7b21d",
"cA c #e7b21e",
"cG c #e7b821",
"bW c #e7bb32",
"dg c #e8b119",
"dv c #e8b11a",
"dd c #e8b21b",
"cV c #e8b21d",
"cC c #e8b31e",
"cw c #e8b31f",
"bF c #e8bc34",
"dj c #e9b219",
"c5 c #e9b21c",
"c8 c #e9b31b",
"cf c #e9b420",
"da c #eab31b",
"cS c #eab41e",
"cr c #eab520",
"ce c #eab521",
"cY c #ebb41c",
"ch c #ebb521",
"c. c #ebb621",
"b7 c #ebb622",
".f c #ebbf35",
"du c #ecb419",
"c1 c #ecb51c",
"cM c #ecb51d",
"cB c #ecb51e",
"b9 c #ecb621",
"cH c #ecb71f",
"bX c #ecb723",
"bN c #ecb724",
"br c #ecbf36",
"cQ c #edb61d",
"cq c #edb720",
"bV c #edb823",
"bG c #edb824",
"bf c #edc037",
"di c #eeb61b",
"cF c #eeb71e",
"bA c #eeb925",
"bE c #eeb926",
"b# c #eec238",
"d# c #efb71c",
"ct c #efb820",
"b2 c #efb821",
"cg c #efb921",
"bK c #efb924",
"b5 c #efba22",
"bw c #efba26",
"c0 c #f0b91f",
"b8 c #f0b922",
"by c #f0bb26",
"bk c #f0bb27",
"a3 c #f0c339",
"aY c #f0c53b",
"eo c #f1b81b",
"bY c #f1bb23",
"bD c #f1bb26",
"bt c #f1bb27",
"bo c #f1bc27",
"bl c #f1bc28",
"aO c #f1c63c",
"cP c #f2ba1f",
"cb c #f2bb22",
"co c #f2bc21",
"bH c #f2bc24",
"bn c #f2bd28",
"bg c #f2bd29",
"cE c #f3bc20",
"b1 c #f3bc23",
"bx c #f3bd26",
"bi c #f3bd29",
"bc c #f3be29",
"a4 c #f3be2a",
"aM c #f3c73d",
"aK c #f3c83f",
".R c #f3d83c",
"cs c #f4bc21",
"bs c #f4bf28",
"bb c #f4bf2a",
"a5 c #f4bf2b",
"bO c #f4c026",
"Qt c #f4d759",
"cl c #f5be21",
"bB c #f5bf26",
"bm c #f5c029",
"a8 c #f5c02b",
"aP c #f5c02c",
"bh c #f5c129",
"aV c #f5c12c",
"ck c #f5c223",
"cm c #f5c423",
"aH c #f5c93f",
"#7 c #f5d93a",
"ca c #f6bf24",
"b0 c #f6bf25",
"bJ c #f6c126",
"ba c #f6c12a",
"aQ c #f6c12d",
"a6 c #f6c22a",
"aD c #f6ca40",
"ap c #f6cb41",
".U c #f6d33b",
"#t c #f6d53b",
"a0 c #f7c22c",
"aN c #f7c22e",
"bv c #f7c328",
"ao c #f7cf37",
"a. c #f7d338",
"bC c #f8c127",
"aW c #f8c32c",
"aL c #f8c32f",
"bq c #f8c52a",
"aS c #f8c52d",
"aT c #f8c52e",
"aR c #f8c62e",
"bj c #f8c72d",
"aX c #f8c72e",
"be c #f8c82d",
"b. c #f8c82e",
"ac c #f8cc43",
"#R c #f8cd44",
"#I c #f8ce45",
"#n c #f8cf46",
".H c #f8d147",
".b c #f8d34a",
".# c #f8d44c",
"aU c #f9c52d",
"a2 c #f9c930",
"ax c #f9d236",
".X c #f9db3d",
"cv c #fac222",
"aI c #fac431",
"aJ c #fac531",
"#c c #fadc3c",
"aE c #fbc632",
"ar c #fbcd36",
"ag c #fbce36",
"aC c #fcc633",
"aG c #fcc732",
"aq c #fcc733",
"aF c #fccb33",
"ae c #fccf35",
"#4 c #fcd038",
".A c #fcd93c",
"#H c #fcdc3c",
"#y c #fcdd3d",
"ad c #fdc834",
"a# c #fdc935",
"#S c #fdd139",
"#A c #fdd239",
"#p c #fdd23a",
"aj c #fdd338",
"#d c #fdd43b",
"#Q c #fdd93a",
"#m c #fdda3b",
"#5 c #fec934",
"#3 c #fec935",
"#W c #feca35",
"#M c #feca36",
"#Z c #fecc36",
"#T c #fecd36",
".I c #fed03b",
"#2 c #fed138",
".2 c #fed13b",
".l c #fed23c",
".W c #fed33b",
".k c #fed83c",
".g c #fedb3e",
".p c #fedc3e",
".G c #fedd3f",
"#F c #ffcb36",
"#C c #ffcb37",
"#z c #ffcb38",
"#r c #ffcc38",
"#w c #ffcc39",
"#8 c #ffcd37",
"#o c #ffcd39",
"#. c #ffcd3a",
"#J c #ffce37",
"#f c #ffce39",
".Z c #ffce3a",
".L c #ffce3b",
"#g c #ffcf3a",
".c c #ffcf3b",
".q c #ffcf3c",
".d c #ffd03c",
".a c #ffd13d",
".9 c #ffd23a",
".M c #ffd23b",
".Q c #ffd33b",
".P c #ffdb3e",
"Qt.#.#.#.#.#.#.#.#.#.#.#.#.#.#.#.#.#.#.#.#.#.#.#.#.#.#.#.#.#.#.#.#.#.#.#.#.#.#.#.#.#.#.#.#.#.#.#.#.#.#.#.#.#.#.#.#.#.#.#.#.#.#.#",
".#.a.a.a.a.a.a.a.a.a.a.a.a.a.a.a.a.a.a.a.a.a.a.a.a.a.a.a.a.a.a.a.a.a.a.a.a.a.a.a.a.a.a.a.a.a.a.a.a.a.a.a.a.a.a.a.a.a.a.a.a.a.a.a",
".#.a.a.a.a.a.a.a.a.a.a.a.a.a.a.a.a.a.a.a.a.a.a.a.a.a.a.a.a.a.a.a.a.a.a.a.a.a.a.a.a.a.a.a.a.a.a.a.a.a.a.a.a.a.a.a.a.a.a.a.a.a.a.a",
".b.c.d.d.d.c.e.f.d.d.c.g.h.i.j.k.c.d.l.m.n.o.p.c.d.d.d.d.d.d.d.d.d.d.d.d.d.d.d.d.d.d.d.d.d.d.d.d.d.d.d.d.d.d.d.d.d.d.d.d.d.d.d.d",
".b.c.c.c.q.r.s.t.c.c.u.v.w.x.y.z.A.c.B.C.D.E.F.G.c.c.c.c.c.c.c.c.c.c.c.c.c.c.c.c.c.c.c.c.c.c.c.c.c.c.c.c.c.c.c.c.c.c.c.c.c.c.c.c",
".H.c.c.I.J.K.s.t.L.M.N.O.P.Q.R.S.T.U.s.V.W.X.K.Y.c.c.c.c.c.c.c.c.c.c.c.c.c.c.c.c.c.c.c.c.c.c.c.c.c.c.c.c.c.c.c.c.c.c.c.c.c.c.c.c",
".H.Z.Z.0.C.1.v.t.Z.2.3.4.Z.Z.Z.5.6.7.8.9.Z#.###a.2.Z.Z.Z.Z.Z.Z.Z.Z.Z.Z.Z.Z.Z.Z.Z.Z.Z.Z.Z.Z.Z.Z.Z.Z.Z.Z.Z.Z.Z.Z.Z.Z.Z.Z.Z.Z.Z.Z.Z",
".H.Z.Z#b#c#d#e.t.Z.Z.Z#f.Z.Z#g#h#i#j#k.Z.Z.Z#l.s#m.Z.Z.Z.Z.Z.Z.Z.Z.Z.Z.Z.Z.Z.Z.Z.Z.Z.Z.Z.Z.Z.Z.Z.Z.Z.Z.Z.Z.Z.Z.Z.Z.Z.Z.Z.Z.Z.Z.Z",
"#n#o#o#o#o#p#e#q#o#o#o#o#o#r#s.s#t#u#v#w#o#o#x.s#y#o#o#o#o#o#o#o#o#o#o#o#o#o#o#o#o#o#o#o#o#o#o#o#o#o#o#o#o#o#o#o#o#o#o#o#o#o#o#o",
"#n#z#r#r#r#A#e#B#r#r#r#r#C#D.s#E#F#u#G#r#r#r#x.s#H#r#r#r#r#r#r#r#r#r#r#r#r#r#r#r#r#r#r#r#r#r#r#r#r#r#r#r#r#r#r#r#r#r#r#r#r#r#r#r",
"#I#C#C#C#C#A#e#B#C#C#C#J#K.s#L#M#C#N#O#C#C#C#P.s#Q#C#C#C#C#C#C#C#C#C#C#C#C#C#C#C#C#C#C#C#C#C#C#C#C#C#C#C#C#C#C#C#C#C#C#C#C#C#C#C",
"#R#C#C#C#C#S#e#B#C#C#T#U.v#V#W#C#C#X#Y#Z#C#M#0#1#2#C#C#C#C#C#C#C#C#C#C#C#C#C#C#C#C#C#C#C#C#C#C#C#C#C#C#C#C#C#C#C#C#C#C#C#C#C#C#C",
"#R#3#3#3#3#4#e#B#3#5#6.v#7#T#J#J#8#9.ya.a##Taaab#3#3#3#3#3#3#3#3#3#3#3#3#3#3#3#3#3#3#3#3#3#3#3#3#3#3#3#3#3#3#3#3#3#3#3#3#3#3#3#3",
"acadadadadae#eafadagah#1.E.E.E.Eaiajakalaman.saoadadadadadadadadadadadadadadadadadadadadadadadadadadadadadadadadadadadadadadadad",
"apaqaqaqaqarasataqauavavavavavavawaqaxayazaAaBaCaqaqaqaqaqaqaqaqaqaqaqaqaqaqaqaqaqaqaqaqaqaqaqaqaqaqaqaqaqaqaqaqaqaqaqaqaqaqaqaq",
"aDaEaEaEaEaEaEaEaEaEaEaEaEaEaEaEaEaEaEaEaFaGaEaEaEaEaEaEaEaEaEaEaEaEaEaEaEaEaEaEaEaEaEaEaEaEaEaEaEaEaEaEaEaEaEaEaEaEaEaEaEaEaEaE",
"aDaEaEaEaEaEaEaEaEaEaEaEaEaEaEaEaEaEaEaEaEaEaEaEaEaEaEaEaEaEaEaEaEaEaEaEaEaEaEaEaEaEaEaEaEaEaEaEaEaEaEaEaEaEaEaEaEaEaEaEaEaEaEaE",
"aHaIaJaJaJaJaJaJaJaJaJaJaJaJaJaJaJaJaJaJaJaJaJaJaJaJaJaJaJaJaJaJaJaJaJaJaJaJaJaJaJaJaJaJaJaJaJaJaJaJaJaJaJaJaJaJaJaJaJaJaJaJaJaJ",
"aKaLaLaLaLaLaLaLaLaLaLaLaLaLaLaLaLaLaLaLaLaLaLaLaLaLaLaLaLaLaLaLaLaLaLaLaLaLaLaLaLaLaLaLaLaLaLaLaLaLaLaLaLaLaLaLaLaLaLaLaLaLaLaL",
"aMaNaNaNaNaNaNaNaNaNaNaNaNaNaNaNaNaNaNaNaNaNaNaNaNaNaNaNaNaNaNaNaNaNaNaNaNaNaNaNaNaNaNaNaNaNaNaNaNaNaNaNaNaNaNaNaNaNaNaNaNaNaNaN",
"aOaPaQaQaQaQaQaQaQaQaQaPaRaSaTaUaVaQaQaQaQaQaQaQaQaQaQaQaQaWaRaRaXaPaQaQaQaQaQaQaQaQaQaQaQaQaQaQaQaQaQaQaQaQaQaQaQaQaQaQaQaQaQaQ",
"aYaPaPaPaPaPaPaPaPaPaPaS.v.s.saZa0aPaPaPaPaPaPaPaPaPaPaPaPa1.s.s.sa2aPaPaPaPaPaPaPaPaPaPaPaPaPaPaPaPaPaPaPaPaPaPaPaPaPaPaPaPaPaP",
"a3a4a5a5a5a5a5a5a5a5a5a6#1.s.sa7a8a5a5a5a5a5a5a5a5a5a5a5a5a9.s.s.sb.a5a5a5a5a5a5a5a5a5a5a5a5a5a5a5a5a5a5a5a5a5a5a5a5a5a5a5a5a5a5",
"b#a4a4a4a4a4a4a4a4a4a4ba#1.s.sa7bba4a4a4a4a4a4a4a4a4a4a4bcbd.s.s.sbea4a4a4a4a4a4a4a4a4a4a4a4a4a4a4a4a4a4a4a4a4a4a4a4a4a4a4a4a4a4",
"bfbgbgbgbgbgbgbgbgbgbgbh#1.s.sa7bibgbgbgbgbgbgbgbgbgbgbgbgbd.s.s.sbjbgbgbgbgbgbgbgbgbgbgbgbgbgbgbgbgbgbgbgbgbgbgbgbgbgbgbgbgbgbg",
"bfbkblblblblblblblblblbm#1.s.sa7bnblblblblblblblblblblblbobp.s.s.sbqblblblblblblblblblblblblblblblblblblblblblblblblblblblblblbl",
"brbkbkbkbkbkbkbkbkbkbkbs#1.s.sa7btbkbkbkbkbkbkbkbkbkbkbkbkbu.s.s.sbvbkbkbkbkbkbkbkbkbkbkbkbkbkbkbkbkbkbkbkbkbkbkbkbkbkbkbkbkbkbk",
"brbwbwbwbwbwbwbwbwbwbwbx#1.s.sa7bybwbwbwbwbwbwbwbwbwbwbwbwbz.s.s.sbvbwbwbwbwbwbwbwbwbwbAbBbCbDbEbwbwbwbwbwbwbwbwbwbwbwbwbwbwbwbw",
"bFbGbGbGbGbGbGbGbGbGbGbH#1.s.sa7bAbGbGbGbGbGbGbGbGbGbGbGbGbI.s.s.sbJbGbKbLbMbMbGbNbObPbQbR.SbSbTbUbVbNbGbGbGbGbGbGbGbGbGbGbGbGbG",
"bWbXbXbXbXbXbXbXbXbXbXbY#1.s.sa7bXbXbXbXbXbXbXbXbXbXbXbXbXbZ.s.s.sb0bXb1.S.s.sb2b3.y.s.s.s.s.s.s.sb4b5bXbXbXbXbXbXbXbXbXbXbXbXbX",
"b6b7b7b7b7b7b7b7b7b7b7b8#1.s.sa7b9b7b7b7b7b7b7b7b7b7b7b7c.c#.s.s.scab7cb.S.s.scc.s.s.s.s#e.s.s.s.s.scdceb7b7b7b7b7b7b7b7b7b7b7b7",
"b6cfcecececececececececg#1.s.sa7chcececececececececececececi.s.s.scacecg.S.s.s.K.s.Scjckclcmcn.s.s.s.scocececececececececececece",
"cpcfcfcfcfcfcfcfcfcfcfcq#1.s.sa7crcfcfcfcfcfcfcfcfcfcfcfcfbZ.s.s.scscfct.S.s.s.scucvcfcfcfcfcwcx.s.s.scycfcfcfcfcfcfcfcfcfcfcfcf",
"czcAcAcAcAcAcAcAcAcAcAcB#1.s.sa7cCcAcAcAcAcAcAcAcAcAcAcAcAcD.s.s.scEcAcF.S.s.s.scGcAcAcAcAcAcAcHcI.s.scJcCcAcAcAcAcAcAcAcAcAcAcA",
"cKcLcLcLcLcLcLcLcLcLcLcM#1.s.sa7cNcLcLcLcLcLcLcLcLcLcLcLcLcO.s.s.scPcLcQ.S.s.scRcScLcLcLcLcLcLcLcT.s.scUcVcLcLcLcLcLcLcLcLcLcLcL",
"cWcXcXcXcXcXcXcXcXcXcXcY.v.s.sa7cZcXcXcXcXcXcXcXcXcXcXcXcXcO.s.s.sc0cXc1.S.s.sc2cXcXcXcXcXcXcXcXc3.s.sc4c5cXcXcXcXcXcXcXcXcXcXcX",
"c6c7c7c7c7c7c7c7c7c7c7c8#1.s.sa7c9c7c7c7c7c7c7c7c7c7c7c7d.cO.s.s.sd#c7da.S.s.sdbc7c7c7c7c7c7c7c7dc.s.sc4ddc7c7c7c7c7c7c7c7c7c7c7",
"dedfdfdfdfdfdfdfdfdfdfdg#1.s.sa7d.dfdfdfdfdfdfdfdfdfdfdfdfdh.s.s.sdidfdj.S.s.sdkdfdfdfdfdfdfdfdldm.s.sc4dndfdfdfdfdfdfdfdfdfdfdf",
"dedododododododododododpbR.s.sdqdrdodododododododododododsdt.s.s.sdudodv.S.s.sdkdododododododododw.s.sc4dxdododododododododododo",
"dydzdzdzdzdzdzdzdzdzdzdAdB.s.s.KdCdzdzdzdzdzdzdzdzdzdzdzdDdE.s.s.SdFdzdG.S.s.sdHdzdzdzdzdzdzdzdzdI.s.s.KdJdzdzdzdzdzdzdzdzdzdzdz",
"dKdLdLdLdLdLdLdLdLdLdLdLdM.s.s.sdNdLdLdLdLdLdLdLdLdLdLdLdOdP.s.sdQdRdLdS.S.s.sdTdLdLdLdLdLdLdLdLdU.s.sc4dVdLdLdLdLdLdLdLdLdLdLdL",
"dWdXdXdXdXdXdXdXdXdXdXdXdY.s.s.sdZdXdXdXdXdXdXdXdXdXdXdXd0.C.s.sd1d2dXd3.S.s.sd4dXdXdXdXdXdXdXdXd5.s.sc4d6dXdXdXdXdXdXdXdXdXdXdX",
"d7d8d8d8d8d8d8d8d8d8d8d8d9.s.s.se.e#d8d8d8d8d8d8d8d8d8d8ea.s.s.sebecd8ed.S.s.seed8d8d8d8d8d8d8efd5.s.sc4egd8d8d8d8d8d8d8d8d8d8d8",
"eheie#e#e#e#e#e#e#e#e#e#ej.s.s.s.vekele#e#e#e#e#e#e#e#emen.s.s.seoe#e#ep.S.s.seqe#e#e#e#e#e#e#e#er.s.sc4ese#e#e#e#e#e#e#e#e#e#e#",
"eheteleleleleleleleleleleuev.s.s.sewepetelelelelelexeyez.s.s.seAeteleleB.S.s.seCeleleleleleleleleD.s.sc4eEelelelelelelelelelelel",
"eFeteteteteteteteteteteteteG.s.s.s.s.veHeIeJeKeLeMeNc4.s.s.s.sd3eteteteO.S.s.seCetetetetetetetePeD.s.sc4eQetetetetetetetetetetet",
"eReSeSeSeSeSeSeSeSeSeSeSeSeTeU.s.s.s.s.s.s.s.s.s.s.s.s.s.s.seVeTeSeSeSeO.S.s.seWeSeSeSeSeSeSeSeSeX.s.sc4eYeSeSeSeSeSeSeSeSeSeSeS",
"eReZeZeZeZeZeZeZeZeZeZeZeZeZeZe0e1.s.s.s.s.s.s.s.s.s.s.se2e3e4eZeZeZeZe5.S.s.seWeZeZeZeZeZeZeZeZe6.s.sc4e7eZeZeZeZeZeZeZeZeZeZeZ",
"eRe8e8e8e8e8e8e8e8e8e8e8e8e8e8e8e9f.f#.v.s.s.s.s.s.Cfafbfce8e8e8e8e8e8fde1e1e1fee8e8e8e8e8e8e8fffge1e1e1fhe8e8e8e8e8e8e8e8e8e8e8",
"fifjfjfjfjfjfjfjfjfjfjfjfjfjfjfjfjfjfkfle8fmfnfofpe9fqfjfjfjfjfjfjfjfjfjfrfsfsftfjfjfjfjfjfjfjfjfufsfsfsfjfjfjfjfjfjfjfjfjfjfjfj",
"fvfjfjfjfjfjfjfjfjfjfjfjfjfjfjfjfjfjfjfjfjfjfjfjfjfjfjfjfjfjfjfjfjfjfjfjfjfjfjfjfjfjfjfjfjfjfjfjfjfjfjfjfjfjfjfjfjfjfjfjfjfjfjfj",
"fvfwfwfwfwfwfwfwfwfwfwfwfwfwfwfwfwfwfwfwfwfwfwfwfwfwfwfwfwfwfwfwfwfwfwfwfwfwfwfwfwfwfwfwfwfwfwfwfwfwfwfwfwfwfwfwfwfwfwfwfwfwfwfw",
"fxe0e0e0e0e0e0e0e0e0e0e0e0e0e0e0e0e0e0e0e0e0e0e0e0e0e0e0e0e0e0e0e0e0e0e0e0e0e0e0e0e0e0e0e0e0e0e0e0e0e0e0e0e0e0e0e0e0e0e0e0e0e0e0",
"fyfzfzfAfBfzfzfCfDfEfzfzfzfzfzfzfzfzfzfzfAfCfzfzfzfBfzfzfzfzfzfzfzfzfzfzfFfBfzfzfzfzfzfzfzfzfzfzfzfzfzfzfzfzfzfzfzfzfzfzfzfzfzfz",
"fyfCfCfGfHfCfCfIfJfKfCfCfCfCfCfCfCfCfCfLfMfNfCfCfOfPfCfCfCfCfCfCfCfCfCfCfQfRfCfCfCfCfCfCfCfCfCfCfCfCfCfCfCfCfCfCfCfCfCfCfCfCfCfC",
"fyfSfSfTfUfSfSfV#1fWfXfYfZf0fSf0fZf1f2f3f4fYf5f2f6f7fOf8f9fYg.f0g#f1f1f0gagbfYf2fSfOfOgcgdf9f8fOf9gdf2fSfSfSfSfSfSfSfSfSfSfSfSfS",
"gegfgffTgggfgffV#1ghgigjcIgkg#glgmahgnf3gogp.ygq.v.sgrgsfJgtgugvgwgm#1gngxgygzgAgfgBgC.zgDfJengEgFgGfOgfgfgfgfgfgfgfgfgfgfgfgfgf",
"gHgfgffTgIgfgffV.Efz.zgJgK.sgLgMgNgOcIgPgQgRgS.vgTfGgUgVgAgWgXgYgZg0fWg1g2g3g4g5gfg6g7g8g9fI.sh.gNcRh#gfgfgfgfgfgfgfgfgfgfgfgfgf",
"hagfgffThbgfgfgN.EfzhcgAfW.shdhehfgfhghhhihfhj#1hkhlhmhnhog8hphqhrhfhshthug3hvg5hwg6g7g8hxgN.shygAhzhAgfgfgfgfgfgfgfgfgfgfgfgfgf",
"hahBhBhChDhEhBhFe2hGhchHhI.shJhKhLhMhNfUhOhLhP.shQhlhRhShThUgXhVhrhLhWhthXhYg4hZhLh0g7g8h1h2.shyh3hzh4hBhBhBhBhBhBhBhBhBhBhBhBhB",
"hahBhBh5.yh6h7h8enhBhchHhI.sh9gji.i#iaibg8hyicidieifigihhyiihpijhrhLhWhtikhYiliminioipg8h1h2.shyh3hziqhBhBhBhBhBhBhBhBhBhBhBhBhB",
"irhEhEisitiuhpiviwixiyhEh2iziAiB.ziChLiDiEgziFiGiHhziIiJe1iKiLiMiNhEhPiOiPiQhPiRiSiTiUiViWiWiXiYiZgui0hEhEhEhEhEhEhEhEhEhEhEhEhE",
"i1i2i2i2i2i3i4i2i2i2i2i2i2i2i2i2i5i6i2i2i2i7i6i2i2i7i6i2i5i2i2i2i2i2i2i2i2i2i2i3i3i2i2i2i2i2i2i2i2i2i2i2i2i2i2i2i2i2i2i2i2i2i2i2",
"i1i2i2i2i2i2i2i2i2i2i2i2i2i2i2i2i2i2i2i2i2i2i2i2i2i2i2i2i2i2i2i2i2i2i2i2i2i2i2i2i2i2i2i2i2i2i2i2i2i2i2i2i2i2i2i2i2i2i2i2i2i2i2i2"};
