/* XPM */
static char *dummy[]={
"16 16 96 2",
".A c #000000",
"#j c #020100",
"#r c #030200",
".L c #040300",
".y c #060400",
".d c #080601",
"## c #090700",
".Y c #0a0701",
".M c #0b0900",
".G c #0c0800",
"#g c #0c0900",
"#v c #0e0a00",
"#h c #110c00",
".f c #110f03",
"#p c #140f00",
"#k c #150f00",
"#o c #261c01",
"#s c #2b2001",
"#i c #4c3801",
".V c #4e3a05",
"#y c #594305",
"#m c #6a4f02",
".5 c #6c5309",
"#a c #6e5407",
"#z c #705301",
".Z c #70560c",
".R c #72580e",
"#l c #7c5c03",
"#f c #977003",
".E c #9a7e1b",
"#w c #b78804",
"#q c #cc9f1c",
"#D c #cd9804",
"#C c #ce9803",
"#n c #ce9906",
"#e c #cfa21d",
"#c c #d1a41d",
"#B c #d29c04",
"#d c #d39e0a",
"#t c #d59e04",
".7 c #d5a920",
".8 c #d6a10d",
".1 c #d8ac25",
"#b c #daa30d",
".4 c #daa511",
".3 c #daa512",
".2 c #dba612",
".T c #ddb028",
".6 c #dea812",
".U c #dfaa16",
"#x c #e0a604",
".N c #e0b32a",
"#u c #e1a704",
".9 c #e1a90d",
".X c #e1ab16",
".0 c #e3ad16",
".H c #e3b522",
"#A c #e4a905",
"#. c #e4ab0e",
".Q c #e4af1a",
".O c #e4af1b",
".I c #e4b82f",
".P c #e5af1b",
".W c #e7b219",
".S c #e8b21b",
".B c #e8bc34",
".J c #e9b420",
".K c #eab520",
".F c #ecb724",
".C c #edb824",
".w c #edc037",
".D c #eeb925",
".r c #f1c63c",
".x c #f2bd29",
".z c #f3bd29",
"Qt c #f4d759",
".u c #f5c12c",
".m c #f5d93a",
".s c #f6c12d",
".p c #f6ca40",
".i c #f6d53b",
".t c #f8c62e",
".v c #f8c72e",
".k c #f8cd44",
".g c #f8cf46",
".a c #f8d34a",
".# c #f8d44c",
".q c #fbc632",
".e c #fcd93c",
".j c #fcdd3d",
".o c #fdc935",
".l c #fec935",
".n c #ffcd37",
".h c #ffcd39",
".c c #ffcf3b",
".b c #ffcf3c",
"Qt.#.#.#.#.#.#.#.#.#.#.#.#.#.#.#",
".a.b.c.d.e.f.c.c.c.c.c.c.c.c.c.c",
".g.h.h.h.i.h.j.h.h.h.h.h.h.h.h.h",
".k.l.l.m.n.o.l.l.l.l.l.l.l.l.l.l",
".p.q.q.q.q.q.q.q.q.q.q.q.q.q.q.q",
".r.s.s.t.u.s.s.s.v.s.s.s.s.s.s.s",
".w.x.x.y.z.x.x.x.A.x.x.x.x.x.x.x",
".B.C.C.y.D.C.C.C.A.E.F.G.H.C.C.C",
".I.J.J.y.K.J.J.J.A.L.M.J.A.J.J.J",
".N.O.O.y.P.O.O.Q.A.L.O.O.R.S.O.O",
".T.U.U.V.W.U.U.X.Y.L.U.U.Z.0.U.U",
".1.2.2.3.A.2.2.A.4.L.2.2.5.6.2.2",
".7.8.8.8.9.A.A#..8##.8.8#a#b.8.8",
"#c#d#d#d#d#d#d#d#d#d#d#d#d#d#d#d",
"#e#f.y#g#h#i#j#k#l#m#n#o#p#n#n#n",
"#q#r#s#t#u#v#w#x#y#z#A#B#C#D#D#D"};
